<svg 
 xmlns="http://www.w3.org/2000/svg"
 xmlns:xlink="http://www.w3.org/1999/xlink"
 width="19px" height="25px">
<path fill-rule="evenodd"  fill="rgb(0, 0, 0)"
 d="M18.599,23.235 L18.595,23.237 C18.597,23.239 16.766,24.313 16.766,24.313 L12.930,17.851 L14.760,16.772 C15.157,16.541 15.667,16.665 15.903,17.063 C15.904,17.066 18.892,22.086 18.892,22.086 L18.891,22.091 C19.116,22.473 19.019,22.988 18.599,23.235 ZM4.109,15.837 C-1.277,6.509 1.601,2.392 2.617,1.633 L6.543,8.235 C5.598,8.792 6.051,10.045 6.614,11.270 C6.623,11.329 9.343,15.891 9.367,15.907 C10.773,17.805 11.535,18.679 12.439,18.148 L16.265,24.593 C15.182,25.259 9.783,25.668 4.109,15.837 ZM8.874,6.863 L8.874,6.866 C8.873,6.869 7.043,7.941 7.043,7.941 L3.122,1.336 L4.952,0.256 C5.348,0.026 5.859,0.149 6.095,0.548 C6.097,0.550 9.170,5.716 9.170,5.716 L9.169,5.722 C9.393,6.101 9.294,6.614 8.874,6.863 Z"/>
</svg>