<svg xmlns="http://www.w3.org/2000/svg" width="19" height="25"><path fill-rule="evenodd" d="M18.599 23.235l-.004.002c.002.002-1.829 1.076-1.829 1.076l-3.836-6.462 1.83-1.079a.836.836 0 011.143.291l2.989 5.023-.001.005a.83.83 0 01-.292 1.144zm-14.49-7.398C-1.277 6.509 1.601 2.392 2.617 1.633l3.926 6.602c-.945.557-.492 1.81.071 3.035.009.059 2.729 4.621 2.753 4.637 1.406 1.898 2.168 2.772 3.072 2.241l3.826 6.445c-1.083.666-6.482 1.075-12.156-8.756zm4.765-8.974v.003c-.001.003-1.831 1.075-1.831 1.075L3.122 1.336l1.83-1.08a.836.836 0 011.143.292L9.17 5.716l-.001.006a.828.828 0 01-.295 1.141z"/></svg>